# xmcd CD database file
#
# Track frame offsets:
#	150
#	24710
#	41252
#	56702
#	72488
#	95628
#	119865
#	146146
#	161336
#	188527
#	208753
#	223951
#
# Disc length: 3294 seconds
#
# Revision: 1
# Processed by: cddbd v1.5.2PL0 Copyright (c) Steve Scherf et al.
# Submitted via: CDValet v3.40 - Copyright (c) 1996 - 1998 Greg Leichner
#
DISCID=be0cdc0c
DTITLE=I. Varios - Body and Soul: The 70's Lovin' You
DYEAR=1900
DGENRE=
TTITLE0=Close the Door - Teddy Pendergrass
TTITLE1=Let's Stay Together - Al Green
TTITLE2=Lovin' You - Minnie Riperton
TTITLE3=Oh Girl - The Chi-Lites
TTITLE4=I Believe in You (You Believe in Me) - Johnnie Taylor
TTITLE5=Our Love - Natalie Cole
TTITLE6=I'm So Into You - Peabo Bryson
TTITLE7=Too Late to Turn Back Now - Cornelius Brothers and Sister
TTITLE7=Rose
TTITLE8=It's You That I Need - Enchantment
TTITLE9=You'll Never Find Another Love Like Mine - Lou Rawls
TTITLE10=Drownin' in the Sea of Love - Joe Simon
TTITLE11=In the Rain - The Dramatics
EXTD=
EXTT0=
EXTT1=
EXTT2=
EXTT3=
EXTT4=
EXTT5=
EXTT6=
EXTT7=
EXTT8=
EXTT9=
EXTT10=
EXTT11=
PLAYORDER=
